<svg width="50" height="50" viewBox="0 0 50 50" fill="none" xmlns="http://www.w3.org/2000/svg">
<path d="M25 0C11.2154 0 0 11.2154 0 25C0 38.7846 11.2154 50 25 50C38.7846 50 50 38.7846 50 25C50 11.2154 38.7846 0 25 0ZM25 3.84615C36.7058 3.84615 46.1538 13.2942 46.1538 25C46.1538 36.7058 36.7058 46.1538 25 46.1538C13.2942 46.1538 3.84615 36.7058 3.84615 25C3.84615 13.2942 13.2942 3.84615 25 3.84615ZM23.0769 13.4615V23.0769H13.4615V26.9231H23.0769V36.5385H26.9231V26.9231H36.5385V23.0769H26.9231V13.4615H23.0769Z" fill="#A1C6FF"/>
</svg>
